<svg width="179" height="43" viewBox="0 0 179 43" fill="none" xmlns="http://www.w3.org/2000/svg">
<path d="M75.986 34C75.934 34 75.908 33.948 75.908 33.844C75.908 33.74 75.934 33.688 75.986 33.688C76.4713 33.688 76.8353 33.6447 77.078 33.558C77.3207 33.4713 77.494 33.3067 77.598 33.064C77.7193 32.8213 77.8233 32.4313 77.91 31.894L79.834 18.92L80.458 18.062L72.71 33.818C72.6753 33.8873 72.6147 33.922 72.528 33.922C72.424 33.922 72.3547 33.8787 72.32 33.792L69.408 19.908C69.1133 18.6773 68.368 18.062 67.172 18.062C67.12 18.062 67.094 18.01 67.094 17.906C67.094 17.802 67.12 17.75 67.172 17.75C67.432 17.75 67.64 17.7587 67.796 17.776L68.836 17.802L70.37 17.776C70.5607 17.7587 70.7773 17.75 71.02 17.75C71.2107 17.75 71.358 17.8367 71.462 18.01C71.5833 18.1833 71.7047 18.5473 71.826 19.102L74.244 30.568L72.554 32.986L79.652 18.4C79.7387 18.2093 79.8687 18.0533 80.042 17.932C80.2153 17.8107 80.406 17.75 80.614 17.75C80.8567 17.75 81.056 17.7587 81.212 17.776L82.304 17.802L83.318 17.776C83.474 17.7587 83.708 17.75 84.02 17.75C84.0547 17.75 84.072 17.802 84.072 17.906C84.072 18.01 84.0547 18.062 84.02 18.062C83.4653 18.062 83.058 18.1833 82.798 18.426C82.538 18.6513 82.356 19.1107 82.252 19.804L80.458 31.894C80.406 32.206 80.38 32.4747 80.38 32.7C80.38 33.0987 80.4753 33.3673 80.666 33.506C80.874 33.6273 81.238 33.688 81.758 33.688C81.81 33.688 81.836 33.74 81.836 33.844C81.836 33.948 81.81 34 81.758 34C81.2727 34 80.8827 33.9913 80.588 33.974L78.872 33.948L77.182 33.974C76.8873 33.9913 76.4887 34 75.986 34ZM64.338 34C64.286 34 64.26 33.948 64.26 33.844C64.26 33.74 64.286 33.688 64.338 33.688C64.9273 33.688 65.4473 33.4193 65.898 32.882C66.3487 32.3447 66.6607 31.6167 66.834 30.698L69.148 18.348L69.772 18.4L67.562 30.62C67.4927 30.9667 67.458 31.322 67.458 31.686C67.458 32.3273 67.5793 32.8213 67.822 33.168C68.082 33.5147 68.446 33.688 68.914 33.688C68.966 33.688 68.992 33.74 68.992 33.844C68.992 33.948 68.966 34 68.914 34C68.5153 34 68.2033 33.9913 67.978 33.974L66.574 33.948L65.352 33.974C65.1267 33.9913 64.7887 34 64.338 34ZM86.9369 34C86.8849 34 86.8589 33.948 86.8589 33.844C86.8589 33.74 86.8849 33.688 86.9369 33.688C87.4222 33.688 87.7775 33.6447 88.0029 33.558C88.2455 33.4713 88.4189 33.3067 88.5229 33.064C88.6442 32.8213 88.7569 32.4313 88.8609 31.894L90.9669 19.856C91.0362 19.5267 91.0709 19.232 91.0709 18.972C91.0709 18.608 90.9669 18.3653 90.7589 18.244C90.5682 18.1227 90.2129 18.062 89.6929 18.062C89.6582 18.062 89.6409 18.01 89.6409 17.906C89.6409 17.802 89.6582 17.75 89.6929 17.75H99.9109C100.05 17.75 100.102 17.828 100.067 17.984L99.5209 21.468C99.5209 21.52 99.4862 21.546 99.4169 21.546C99.3649 21.546 99.3129 21.5373 99.2609 21.52C99.2262 21.4853 99.2089 21.4593 99.2089 21.442C99.1395 20.4887 98.8015 19.726 98.1949 19.154C97.5882 18.582 96.8082 18.296 95.8549 18.296H95.3869C94.8842 18.296 94.5202 18.3393 94.2949 18.426C94.0695 18.4953 93.9049 18.634 93.8009 18.842C93.7142 19.05 93.6275 19.3967 93.5409 19.882L91.4349 31.79C91.3829 32.102 91.3569 32.362 91.3569 32.57C91.3569 32.9167 91.4522 33.1507 91.6429 33.272C91.8335 33.3933 92.1802 33.454 92.6829 33.454H93.3589C94.3642 33.454 95.3522 33.1333 96.3229 32.492C97.2935 31.8333 98.0995 30.958 98.7409 29.866C98.7582 29.814 98.8189 29.8053 98.9229 29.84C99.0269 29.8573 99.0615 29.8833 99.0269 29.918C98.7495 30.8193 98.4549 32.05 98.1429 33.61C98.1082 33.766 98.0649 33.87 98.0129 33.922C97.9609 33.974 97.8655 34 97.7269 34H86.9369ZM97.7009 28.228C97.6835 28.2973 97.6229 28.332 97.5189 28.332C97.4149 28.3147 97.3715 28.2713 97.3889 28.202C97.4235 27.9593 97.4409 27.786 97.4409 27.682C97.4409 27.11 97.2589 26.6767 96.8949 26.382C96.5309 26.07 96.0195 25.914 95.3609 25.914H91.2789L91.3829 25.186H95.5429C96.3402 25.186 96.9469 25.0387 97.3629 24.744C97.7962 24.432 98.0909 23.9207 98.2469 23.21C98.2642 23.1233 98.3249 23.0887 98.4289 23.106C98.5329 23.106 98.5762 23.1493 98.5589 23.236C98.4895 23.7213 98.3855 24.2587 98.2469 24.848C98.2469 24.9173 98.2035 25.1513 98.1169 25.55C98.0649 25.862 98.0042 26.2693 97.9349 26.772C97.9002 26.9627 97.8655 27.1793 97.8309 27.422C97.7962 27.6647 97.7529 27.9333 97.7009 28.228ZM103.713 34C103.679 34 103.661 33.948 103.661 33.844C103.661 33.74 103.679 33.688 103.713 33.688C104.199 33.688 104.554 33.6447 104.779 33.558C105.022 33.4713 105.195 33.3067 105.299 33.064C105.421 32.8213 105.533 32.4313 105.637 31.894L107.769 19.856C107.839 19.4053 107.873 19.1193 107.873 18.998C107.873 18.634 107.769 18.3913 107.561 18.27C107.353 18.1313 106.989 18.062 106.469 18.062C106.435 18.062 106.417 18.01 106.417 17.906C106.417 17.802 106.435 17.75 106.469 17.75L107.639 17.776C108.333 17.8107 108.887 17.828 109.303 17.828C109.719 17.828 110.291 17.8107 111.019 17.776L112.241 17.75C112.276 17.75 112.293 17.802 112.293 17.906C112.293 18.01 112.276 18.062 112.241 18.062C111.756 18.062 111.392 18.114 111.149 18.218C110.924 18.3047 110.751 18.478 110.629 18.738C110.508 18.9807 110.404 19.362 110.317 19.882L108.211 31.79C108.159 32.1193 108.133 32.3967 108.133 32.622C108.133 32.9513 108.203 33.1767 108.341 33.298C108.497 33.402 108.766 33.454 109.147 33.454H109.823C111.106 33.454 112.233 33.142 113.203 32.518C114.174 31.8767 115.049 30.8887 115.829 29.554C115.847 29.5367 115.881 29.528 115.933 29.528C116.072 29.528 116.133 29.5627 116.115 29.632C115.682 31.244 115.379 32.57 115.205 33.61C115.171 33.7487 115.119 33.8527 115.049 33.922C114.997 33.974 114.911 34 114.789 34H103.713ZM119.96 34C119.926 34 119.908 33.948 119.908 33.844C119.908 33.74 119.926 33.688 119.96 33.688C120.446 33.688 120.801 33.6447 121.026 33.558C121.269 33.4713 121.442 33.3067 121.546 33.064C121.668 32.8213 121.78 32.4313 121.884 31.894L124.016 19.856C124.086 19.4053 124.12 19.1193 124.12 18.998C124.12 18.634 124.016 18.3913 123.808 18.27C123.6 18.1313 123.236 18.062 122.716 18.062C122.682 18.062 122.664 18.01 122.664 17.906C122.664 17.802 122.682 17.75 122.716 17.75L123.886 17.776C124.58 17.8107 125.134 17.828 125.55 17.828C125.966 17.828 126.538 17.8107 127.266 17.776L128.488 17.75C128.523 17.75 128.54 17.802 128.54 17.906C128.54 18.01 128.523 18.062 128.488 18.062C128.003 18.062 127.639 18.114 127.396 18.218C127.171 18.3047 126.998 18.478 126.876 18.738C126.755 18.9807 126.651 19.362 126.564 19.882L124.458 31.79C124.406 32.1193 124.38 32.3967 124.38 32.622C124.38 32.9513 124.45 33.1767 124.588 33.298C124.744 33.402 125.013 33.454 125.394 33.454H126.07C127.353 33.454 128.48 33.142 129.45 32.518C130.421 31.8767 131.296 30.8887 132.076 29.554C132.094 29.5367 132.128 29.528 132.18 29.528C132.319 29.528 132.38 29.5627 132.362 29.632C131.929 31.244 131.626 32.57 131.452 33.61C131.418 33.7487 131.366 33.8527 131.296 33.922C131.244 33.974 131.158 34 131.036 34H119.96ZM143.149 34.312C141.919 34.312 140.853 34.0347 139.951 33.48C139.067 32.908 138.391 32.128 137.923 31.14C137.455 30.152 137.221 29.034 137.221 27.786C137.221 27.266 137.282 26.6247 137.403 25.862C137.681 24.2673 138.253 22.8373 139.119 21.572C140.003 20.2893 141.095 19.284 142.395 18.556C143.695 17.828 145.073 17.464 146.529 17.464C147.777 17.464 148.852 17.7413 149.753 18.296C150.672 18.8507 151.374 19.622 151.859 20.61C152.345 21.5807 152.587 22.6987 152.587 23.964C152.587 24.6227 152.527 25.2553 152.405 25.862C152.111 27.5607 151.495 29.0513 150.559 30.334C149.623 31.6167 148.497 32.6047 147.179 33.298C145.879 33.974 144.536 34.312 143.149 34.312ZM144.267 33.636C145.498 33.636 146.581 33.064 147.517 31.92C148.471 30.7587 149.112 29.1987 149.441 27.24C149.58 26.4773 149.649 25.6367 149.649 24.718C149.649 22.794 149.285 21.208 148.557 19.96C147.829 18.712 146.815 18.088 145.515 18.088C144.267 18.088 143.175 18.6687 142.239 19.83C141.303 20.974 140.671 22.5253 140.341 24.484C140.203 25.4027 140.133 26.2347 140.133 26.98C140.133 28.8867 140.489 30.4727 141.199 31.738C141.927 33.0033 142.95 33.636 144.267 33.636ZM168.183 19.154L161.241 34C161.224 34.0693 161.137 34.104 160.981 34.104C160.842 34.104 160.764 34.0693 160.747 34L158.901 19.856C158.797 19.1107 158.641 18.6253 158.433 18.4C158.242 18.1747 157.922 18.062 157.471 18.062C157.419 18.062 157.393 18.01 157.393 17.906C157.393 17.802 157.419 17.75 157.471 17.75C157.662 17.75 157.878 17.7673 158.121 17.802C158.364 17.8193 158.71 17.828 159.161 17.828C160.253 17.828 161.163 17.8107 161.891 17.776C162.082 17.7587 162.324 17.75 162.619 17.75C162.671 17.75 162.697 17.802 162.697 17.906C162.697 18.01 162.671 18.062 162.619 18.062C162.186 18.062 161.891 18.114 161.735 18.218C161.579 18.322 161.501 18.5473 161.501 18.894C161.501 19.206 161.553 19.7173 161.657 20.428L162.879 29.814L161.137 32.57L168.105 17.75C168.14 17.698 168.226 17.672 168.365 17.672C168.504 17.672 168.582 17.698 168.599 17.75L171.147 29.918L169.587 32.57L174.397 21.26C174.744 20.4627 174.917 19.778 174.917 19.206C174.917 18.4433 174.579 18.062 173.903 18.062C173.868 18.062 173.851 18.01 173.851 17.906C173.851 17.802 173.868 17.75 173.903 17.75L174.995 17.776C175.55 17.8107 176.07 17.828 176.555 17.828C176.867 17.828 177.231 17.8107 177.647 17.776L178.661 17.75C178.696 17.75 178.713 17.802 178.713 17.906C178.713 18.01 178.696 18.062 178.661 18.062C178.054 18.062 177.422 18.348 176.763 18.92C176.122 19.492 175.593 20.2547 175.177 21.208L169.691 34C169.674 34.0693 169.587 34.104 169.431 34.104C169.292 34.104 169.214 34.0693 169.197 34L166.649 21.598L168.183 19.154Z" fill="#1A1A1A"/>
<path d="M14.4187 24.5969C14.5756 23.487 15.9565 23.0646 16.7075 23.8968L25.7143 33.8765C26.7636 35.0391 28.588 35.0391 29.6373 33.8765L38.6441 23.8968C39.3952 23.0646 40.776 23.487 40.933 24.5969L43.2722 41.1392C43.3643 41.7908 43.9221 42.2753 44.5803 42.2753H53.9012C54.7262 42.2753 55.3493 41.5276 55.2007 40.7161L48.703 5.24379C48.3092 3.09373 45.6237 2.3245 44.1513 3.93997L29.6253 19.8768C28.5785 21.0253 26.7715 21.0268 25.7228 19.88L11.153 3.94865C9.6754 2.33297 6.98659 3.11233 6.60207 5.26775L0.277074 40.7222C0.132629 41.5318 0.755179 42.2753 1.57764 42.2753H10.7714C11.4295 42.2753 11.9873 41.7908 12.0794 41.1392L14.4187 24.5969Z" fill="#F4E2D8"/>
<path d="M27.2752 18.0291L22.2644 13.0183C21.8482 12.6021 22.1429 11.8906 22.7314 11.8906H32.753C33.3415 11.8906 33.6362 12.6021 33.2201 13.0183L28.2093 18.0291C27.9514 18.287 27.5331 18.287 27.2752 18.0291Z" fill="#D16806"/>
</svg>
